<?xml version="1.0" standalone="no"?>
<!DOCTYPE svg PUBLIC "-//W3C//DTD SVG 20010904//EN"
 "http://www.w3.org/TR/2001/REC-SVG-20010904/DTD/svg10.dtd">
<svg version="1.0" xmlns="http://www.w3.org/2000/svg"
 width="1712.000000pt" height="1712.000000pt" viewBox="0 0 1712.000000 1712.000000"
 preserveAspectRatio="xMidYMid meet">
<metadata>
Created by potrace 1.14, written by Peter Selinger 2001-2017
</metadata>
<g transform="translate(0.000000,1712.000000) scale(0.100000,-0.100000)"
fill="#000000" stroke="none">
<path d="M8416 16730 c-37 -22 -70 -40 -71 -40 -8 0 -110 -66 -113 -72 -2 -5
-9 -8 -16 -8 -7 0 -54 -25 -104 -55 -50 -30 -96 -55 -102 -55 -5 0 -10 -4 -10
-10 0 -5 -4 -10 -9 -10 -6 0 -76 -39 -158 -86 -81 -48 -168 -98 -193 -112 -25
-13 -86 -49 -137 -78 -51 -30 -97 -54 -102 -54 -6 0 -11 -3 -11 -8 0 -4 -34
-25 -75 -47 -41 -21 -75 -43 -75 -47 0 -4 -6 -8 -14 -8 -8 0 -21 -7 -30 -15
-8 -9 -19 -16 -23 -16 -8 -1 -126 -67 -173 -97 -14 -9 -28 -17 -31 -17 -4 0
-28 -14 -55 -31 -27 -17 -56 -34 -64 -38 -8 -3 -28 -15 -45 -26 -16 -11 -41
-25 -55 -32 -14 -7 -49 -27 -78 -45 -29 -18 -55 -33 -58 -33 -3 0 -26 -13 -51
-30 -24 -16 -46 -30 -49 -30 -3 0 -51 -26 -107 -59 -56 -32 -118 -68 -138 -79
-20 -11 -65 -37 -100 -59 -35 -21 -81 -47 -102 -58 -21 -11 -47 -28 -58 -38
-10 -10 -19 -15 -19 -11 0 3 -17 -4 -37 -17 -102 -60 -393 -228 -473 -272 -30
-16 -61 -35 -69 -41 -14 -11 -48 -31 -71 -42 -8 -4 -42 -24 -75 -44 -33 -20
-86 -49 -117 -65 -32 -17 -58 -33 -58 -37 0 -5 -5 -8 -10 -8 -6 0 -40 -18 -76
-40 -36 -22 -70 -40 -74 -40 -4 0 -13 -7 -20 -15 -7 -8 -16 -12 -21 -9 -5 3
-9 1 -9 -4 0 -5 -18 -17 -40 -27 -22 -10 -40 -23 -40 -28 0 -6 -3 -7 -6 -4 -4
4 -19 -2 -33 -12 -14 -10 -34 -21 -43 -24 -10 -4 -18 -11 -18 -17 0 -6 -4 -9
-9 -6 -5 3 -14 -1 -21 -9 -7 -8 -16 -12 -21 -9 -5 3 -9 0 -9 -5 0 -6 -4 -11
-9 -11 -13 0 -155 -82 -159 -92 -2 -4 -12 -8 -23 -8 -10 0 -19 -4 -19 -8 0 -5
-18 -17 -40 -27 -22 -10 -40 -22 -40 -27 0 -5 -4 -7 -9 -4 -5 3 -14 -1 -21 -9
-7 -8 -16 -15 -21 -15 -10 0 -132 -72 -140 -83 -3 -5 -9 -8 -13 -8 -7 2 -69
-29 -76 -38 -3 -3 -23 -16 -45 -28 -95 -51 -120 -66 -127 -77 -4 -6 -8 -8 -8
-3 0 4 -18 -4 -41 -19 -36 -22 -85 -50 -154 -88 -11 -6 -22 -13 -25 -16 -5 -5
-41 -25 -109 -62 -23 -12 -41 -26 -41 -30 0 -5 -5 -6 -10 -3 -6 3 -10 1 -10
-4 0 -6 -3 -10 -7 -9 -8 2 -54 -21 -63 -31 -3 -3 -21 -14 -40 -24 -65 -35 -95
-52 -100 -58 -3 -4 -15 -9 -27 -13 -13 -4 -23 -12 -23 -17 0 -6 -4 -8 -8 -5
-5 3 -18 -3 -28 -12 -10 -10 -23 -19 -29 -21 -19 -5 -120 -65 -127 -75 -5 -7
-8 -7 -8 -1 0 6 -6 3 -13 -5 -7 -8 -17 -16 -23 -17 -16 -3 -138 -76 -146 -88
-5 -6 -8 -6 -8 0 0 7 -3 7 -8 0 -4 -5 -27 -21 -52 -34 -25 -13 -88 -49 -140
-80 -52 -31 -98 -55 -102 -53 -5 1 -8 -2 -8 -7 0 -5 -14 -14 -30 -21 -17 -7
-30 -16 -30 -21 0 -5 -3 -8 -7 -7 -5 1 -28 -9 -53 -24 -201 -116 -303 -175
-350 -201 -30 -16 -62 -36 -71 -43 -8 -8 -21 -14 -27 -14 -6 0 -17 -6 -24 -12
-13 -13 -81 -52 -125 -73 -13 -5 -23 -13 -23 -17 0 -5 -4 -8 -10 -8 -5 0 -64
-32 -132 -72 -68 -39 -143 -82 -168 -96 -25 -14 -48 -29 -51 -34 -3 -6 -8 -8
-10 -7 -2 2 -14 -3 -26 -12 l-22 -15 0 -4101 c0 -3845 1 -4101 17 -4107 9 -4
26 -12 37 -19 93 -58 216 -127 224 -127 6 0 11 -4 11 -10 0 -5 4 -10 10 -10 5
0 39 -18 75 -40 36 -22 65 -36 65 -32 0 4 4 2 8 -3 8 -12 153 -99 164 -100 4
0 13 -6 19 -12 7 -7 16 -13 20 -13 5 0 28 -13 52 -30 25 -16 48 -30 51 -30 5
0 82 -45 156 -90 8 -5 38 -21 65 -36 28 -15 74 -42 103 -60 29 -19 54 -34 56
-34 3 0 39 -20 80 -45 42 -25 78 -45 80 -45 2 0 37 -20 77 -45 40 -25 79 -45
86 -45 7 0 13 -4 13 -9 0 -5 8 -11 17 -14 19 -6 74 -38 83 -48 3 -3 20 -11 38
-18 17 -8 32 -17 32 -22 0 -5 7 -9 15 -9 9 0 21 -5 28 -11 14 -12 79 -53 87
-54 3 0 24 -13 47 -28 24 -15 45 -27 49 -27 3 0 19 -9 35 -21 16 -11 29 -17
29 -13 0 4 7 -1 15 -12 8 -10 15 -15 15 -11 0 5 12 -1 26 -12 15 -12 33 -21
40 -21 8 0 14 -3 14 -8 0 -4 15 -13 33 -21 17 -8 34 -17 37 -21 5 -7 149 -90
156 -90 2 0 28 -16 58 -35 30 -19 59 -35 64 -35 5 0 15 -7 22 -15 7 -8 16 -12
21 -9 5 3 9 1 9 -3 0 -5 25 -21 55 -37 30 -15 57 -32 61 -37 3 -5 10 -7 15 -4
5 4 9 3 9 -2 0 -4 21 -19 48 -33 26 -14 53 -30 60 -37 8 -7 17 -11 22 -8 5 3
10 1 12 -3 4 -11 264 -162 278 -162 5 0 10 -5 10 -11 0 -5 4 -7 10 -4 6 3 10
1 10 -4 0 -6 7 -11 15 -11 8 0 15 -4 15 -10 0 -5 5 -10 10 -10 6 0 28 -11 49
-24 21 -14 42 -22 45 -19 3 4 6 2 6 -3 0 -5 17 -18 38 -29 20 -11 40 -24 43
-28 3 -5 8 -8 10 -6 2 1 22 -9 44 -23 22 -13 55 -31 73 -39 17 -8 32 -16 32
-19 0 -3 30 -21 68 -40 37 -19 69 -38 72 -41 3 -3 25 -16 50 -30 25 -13 47
-27 48 -31 2 -5 8 -8 14 -8 5 0 22 -9 38 -20 15 -11 30 -17 34 -13 3 3 6 1 6
-5 0 -7 6 -12 14 -12 8 0 16 -3 18 -7 3 -8 23 -19 113 -67 22 -12 42 -24 45
-27 3 -3 25 -16 50 -30 25 -13 48 -28 52 -34 5 -7 8 -7 8 0 0 6 3 5 8 -1 7
-12 70 -46 75 -42 1 2 9 -3 17 -10 24 -21 180 -111 180 -104 0 4 4 2 8 -3 9
-13 130 -85 143 -85 5 0 9 -4 9 -9 0 -5 11 -12 25 -15 14 -4 25 -11 25 -16 0
-6 9 -10 19 -10 11 0 21 -4 23 -9 3 -9 113 -73 161 -93 15 -7 27 -16 27 -20 0
-4 5 -8 11 -8 6 0 24 -9 40 -21 16 -11 29 -17 29 -12 0 4 4 3 8 -2 9 -13 130
-85 143 -85 5 0 9 -4 9 -10 0 -5 4 -10 9 -10 7 0 206 -112 344 -194 18 -10 56
-32 85 -48 30 -16 65 -36 79 -45 13 -9 37 -23 53 -32 87 -48 188 -106 211
-122 14 -10 29 -16 33 -12 3 3 6 2 6 -4 0 -9 35 -30 54 -31 5 0 12 -4 15 -9 8
-12 130 -83 142 -83 5 0 9 -3 9 -8 0 -4 15 -13 33 -21 17 -8 39 -20 47 -26 8
-7 38 -25 65 -39 52 -28 57 -31 142 -83 29 -18 53 -29 53 -25 0 4 4 2 8 -4 4
-6 23 -19 42 -29 19 -9 42 -23 50 -30 8 -8 22 -15 30 -17 8 -2 17 -5 20 -8 3
-3 41 -27 85 -52 44 -26 96 -56 115 -67 19 -11 54 -31 78 -43 23 -12 42 -26
42 -30 0 -4 8 -8 17 -8 9 0 24 -6 32 -14 9 -7 41 -27 71 -43 30 -16 73 -41 95
-55 l41 -26 39 24 c22 13 50 29 62 36 12 7 46 26 75 42 29 16 56 34 60 40 4 6
8 7 8 3 0 -4 25 8 55 28 31 19 60 35 65 35 6 0 10 5 10 11 0 5 5 7 10 4 6 -3
10 -1 10 4 0 6 4 11 10 11 5 0 33 14 62 31 29 18 73 43 98 57 25 14 48 30 52
36 4 6 8 7 8 3 0 -4 25 8 55 28 31 19 60 35 65 35 6 0 10 4 10 10 0 5 3 9 8 8
9 -3 106 53 110 64 2 5 7 6 12 3 4 -3 13 2 20 10 7 8 16 15 21 15 5 0 46 22
91 49 46 27 117 68 158 92 41 24 83 48 92 54 9 5 45 25 80 44 35 19 81 45 103
59 22 14 42 24 44 23 2 -2 7 1 10 6 5 8 117 73 288 169 23 13 92 53 153 89 61
36 113 65 115 65 3 0 29 16 59 35 30 19 60 35 66 35 5 0 10 4 10 10 0 5 3 9 8
8 9 -3 86 43 90 54 2 5 8 6 13 2 5 -3 9 0 9 6 0 6 4 9 9 6 5 -3 14 1 21 9 7 8
19 15 26 15 8 0 14 4 14 9 0 5 11 12 24 15 14 3 31 12 38 19 15 13 44 31 98
59 19 10 51 28 70 40 83 50 137 80 163 91 15 6 27 14 27 18 0 3 18 14 40 24
22 10 40 22 40 27 0 4 9 8 20 8 10 0 23 7 28 16 5 9 11 15 13 14 8 -4 79 34
79 42 0 4 5 8 10 8 6 0 76 38 156 85 81 47 148 85 150 85 3 0 21 11 42 23 20
13 51 32 67 43 17 10 32 19 35 19 3 0 23 11 45 24 22 14 50 30 62 37 74 41 89
50 93 54 3 3 21 13 40 24 62 33 123 68 189 108 34 21 67 38 72 38 5 0 9 5 9
10 0 6 5 10 10 10 15 0 223 122 238 140 8 8 10 9 7 2 -4 -8 10 -2 31 12 22 14
59 35 84 47 25 13 47 25 50 29 4 5 71 45 203 119 20 11 54 31 75 43 20 12 48
28 62 35 14 8 43 25 65 39 22 13 47 27 55 31 8 4 17 9 20 12 3 3 26 17 53 31
26 13 47 28 47 33 0 4 4 6 9 2 5 -3 15 1 23 8 7 7 24 18 38 25 36 19 74 41
170 97 47 28 93 53 103 57 9 4 17 12 17 17 0 6 7 8 15 5 8 -4 15 -1 15 4 0 6
8 13 18 16 19 6 229 128 247 144 6 4 14 9 18 10 15 2 187 105 187 111 0 4 10
7 22 8 11 1 24 6 27 11 3 5 52 35 109 66 56 32 105 62 108 67 3 5 10 7 15 4 5
-4 9 -1 9 4 0 6 7 11 15 11 8 0 15 5 15 11 0 5 5 7 10 4 6 -3 10 -1 10 4 0 6
4 11 9 11 12 0 201 108 225 129 10 9 19 14 20 12 0 -3 30 12 66 33 36 21 80
47 98 57 17 11 47 27 65 38 17 10 77 44 132 76 55 31 116 66 135 78 19 11 55
31 80 45 25 14 53 30 63 36 16 10 17 214 15 4116 l-3 4105 -35 17 c-19 9 -40
22 -47 27 -7 6 -15 11 -19 11 -3 0 -17 9 -31 20 -14 11 -29 17 -34 14 -5 -3
-9 -1 -9 4 0 5 -18 17 -40 28 -22 10 -40 22 -40 25 0 3 -16 11 -35 19 -19 8
-35 17 -35 22 0 4 -5 8 -11 8 -6 0 -23 9 -39 20 -15 11 -30 17 -34 13 -3 -3
-6 -2 -6 4 0 10 -49 38 -62 35 -5 -1 -8 2 -8 6 0 5 -18 17 -40 27 -22 10 -40
22 -40 27 0 4 -9 8 -20 8 -11 0 -20 3 -20 8 0 4 -17 16 -37 27 -21 11 -70 39
-109 62 -39 24 -76 43 -82 43 -6 0 -12 3 -14 8 -3 6 -209 128 -248 145 -8 4
-27 15 -42 25 -55 36 -138 82 -148 82 -5 0 -10 5 -10 11 0 5 -4 7 -10 4 -5 -3
-10 -2 -10 2 0 5 -26 22 -57 38 -32 17 -59 33 -61 38 -2 4 -8 7 -13 7 -5 0
-44 21 -87 48 -42 26 -91 54 -107 62 -17 8 -41 22 -55 31 -14 9 -41 26 -61 37
-20 11 -47 26 -60 34 -13 7 -27 18 -31 23 -4 6 -8 7 -8 2 0 -4 -19 5 -42 19
-78 49 -280 164 -289 164 -5 0 -9 4 -9 9 0 5 -8 11 -17 14 -10 3 -40 20 -68
36 -27 17 -57 34 -65 38 -8 4 -55 31 -103 60 -48 29 -90 53 -93 53 -2 0 -23
11 -45 26 -22 14 -57 34 -77 46 -20 11 -153 87 -295 169 -141 82 -262 149
-267 149 -6 0 -10 4 -10 8 0 5 -12 14 -27 21 -16 7 -68 37 -118 66 -49 29 -94
54 -100 56 -5 1 -19 11 -29 21 -10 9 -23 15 -28 12 -4 -3 -8 -2 -8 3 0 4 -15
14 -32 22 -18 8 -40 19 -48 26 -8 7 -37 25 -65 40 -27 15 -80 45 -117 66 -36
21 -71 39 -76 39 -6 0 -12 4 -14 8 -3 8 -90 60 -208 125 -30 17 -56 34 -58 39
-2 4 -12 8 -23 8 -10 0 -19 4 -19 8 0 4 -28 23 -62 41 -35 18 -83 46 -108 61
-25 16 -51 29 -57 29 -7 1 -13 6 -13 11 0 6 -5 10 -10 10 -6 0 -50 24 -98 52
-48 29 -90 52 -94 50 -5 -1 -8 1 -8 5 0 5 -26 22 -57 38 -32 17 -64 36 -71 43
-8 7 -18 10 -23 7 -5 -4 -9 -2 -9 3 0 5 -21 20 -47 33 -26 13 -52 29 -59 34
-6 6 -37 24 -70 40 -32 17 -61 33 -64 36 -10 10 -271 159 -281 159 -5 0 -9 5
-9 10 0 6 -4 10 -10 10 -8 0 -144 77 -210 118 -14 9 -31 17 -39 18 -8 2 -17 7
-20 12 -3 5 -18 15 -33 23 -15 8 -83 47 -152 87 -69 39 -129 72 -135 72 -5 0
-11 4 -13 8 -3 7 -246 151 -273 161 -5 2 -12 7 -15 10 -8 9 -81 51 -112 64
-16 6 -28 15 -28 19 0 4 -5 8 -10 8 -6 0 -35 16 -65 35 -30 19 -55 31 -55 27
0 -4 -4 -2 -8 3 -11 16 -123 80 -131 76 -2 -2 -7 1 -10 6 -7 11 -150 94 -166
96 -5 1 -14 7 -20 13 -5 7 -41 29 -80 50 -38 21 -90 50 -114 66 -25 15 -47 28
-51 28 -3 0 -36 -18 -74 -40z m166 -740 c35 -22 69 -40 76 -40 6 0 12 -4 12
-10 0 -5 4 -10 9 -10 7 0 62 -30 111 -60 8 -5 53 -32 100 -58 47 -27 130 -75
185 -107 55 -32 114 -66 130 -75 17 -10 129 -75 250 -145 213 -123 283 -163
335 -192 14 -8 39 -23 55 -33 17 -11 39 -24 51 -29 12 -5 46 -26 77 -45 31
-20 58 -36 60 -36 3 0 78 -43 168 -96 90 -53 187 -108 214 -124 99 -55 201
-113 270 -155 72 -43 133 -78 195 -111 19 -11 37 -21 40 -24 5 -5 22 -15 99
-58 25 -13 58 -33 73 -43 14 -11 29 -19 33 -19 4 0 20 -9 36 -21 16 -11 29
-17 29 -14 0 4 7 -1 16 -9 8 -9 21 -16 29 -16 7 0 15 -4 17 -8 2 -4 54 -37
117 -72 63 -36 130 -75 150 -86 90 -53 207 -121 221 -127 8 -4 60 -34 115 -68
55 -33 108 -63 118 -66 9 -3 17 -9 17 -14 0 -5 5 -9 11 -9 8 0 142 -74 224
-125 11 -7 25 -13 30 -15 6 -1 21 -10 35 -20 14 -10 45 -29 70 -43 25 -14 111
-64 193 -111 81 -47 147 -82 147 -78 0 4 4 2 8 -3 8 -11 88 -65 97 -65 3 0 31
-16 61 -35 30 -19 56 -35 58 -35 3 0 39 -20 80 -45 42 -25 81 -45 86 -45 6 0
10 -4 10 -10 0 -5 6 -10 14 -10 7 0 19 -7 26 -15 7 -8 16 -12 21 -9 5 3 9 1 9
-5 0 -5 6 -11 13 -13 10 -2 264 -146 317 -179 30 -18 405 -235 420 -242 8 -4
24 -13 35 -20 11 -7 63 -36 115 -66 52 -30 102 -60 110 -67 8 -7 20 -14 25
-15 10 -2 30 -13 97 -56 21 -12 40 -23 43 -23 2 0 35 -18 71 -41 37 -22 77
-45 88 -50 12 -5 62 -33 111 -63 50 -30 117 -69 150 -87 33 -17 62 -35 65 -38
3 -4 26 -17 52 -31 25 -13 54 -30 63 -36 16 -12 17 -260 17 -3749 l0 -3736
-38 -21 c-22 -11 -42 -25 -45 -30 -3 -5 -10 -10 -15 -10 -10 0 -87 -42 -126
-69 -15 -11 -30 -19 -33 -19 -5 0 -304 -173 -405 -234 -19 -11 -39 -21 -43
-21 -4 0 -11 -5 -15 -10 -4 -6 -12 -11 -19 -12 -6 -1 -28 -14 -48 -27 -20 -14
-54 -33 -76 -43 -21 -9 -39 -20 -39 -25 0 -4 -4 -8 -9 -8 -5 0 -67 -34 -136
-75 -70 -41 -131 -75 -135 -75 -4 0 -13 -7 -20 -15 -7 -8 -21 -15 -30 -15 -10
0 -20 -4 -22 -8 -2 -4 -37 -27 -78 -51 -41 -24 -112 -65 -156 -91 -45 -26 -88
-50 -95 -54 -8 -4 -23 -12 -34 -19 -11 -7 -47 -27 -80 -46 -33 -19 -63 -39
-67 -45 -4 -6 -8 -8 -8 -4 0 3 -41 -18 -90 -48 -50 -30 -94 -54 -99 -54 -4 0
-16 -8 -27 -17 -11 -10 -24 -19 -30 -20 -5 -1 -57 -30 -114 -64 -94 -55 -151
-88 -215 -123 -11 -6 -30 -20 -43 -31 -13 -11 -27 -19 -30 -19 -4 1 -25 -8
-47 -21 -64 -36 -352 -203 -387 -225 -18 -11 -40 -23 -48 -27 -8 -3 -110 -62
-226 -129 -258 -150 -282 -164 -316 -181 -16 -8 -28 -18 -28 -22 0 -4 -6 -8
-12 -8 -7 0 -92 -47 -188 -103 -96 -56 -204 -118 -240 -138 -36 -19 -72 -41
-81 -48 -8 -8 -19 -14 -23 -14 -4 0 -22 -10 -39 -22 -18 -13 -34 -23 -37 -23
-5 0 -156 -86 -200 -114 -14 -9 -36 -21 -49 -28 -77 -42 -107 -59 -111 -64 -5
-5 -59 -36 -150 -85 -19 -11 -37 -21 -40 -24 -9 -9 -84 -51 -112 -63 -16 -6
-28 -15 -28 -19 0 -4 -4 -8 -8 -8 -10 0 -260 -143 -279 -160 -7 -5 -14 -10
-16 -10 -3 0 -92 -50 -198 -111 -107 -62 -214 -123 -239 -137 -25 -14 -72 -42
-105 -61 -33 -20 -77 -45 -97 -56 -21 -11 -38 -23 -38 -28 0 -4 -4 -5 -10 -2
-5 3 -10 2 -10 -2 0 -5 -12 -14 -27 -20 -16 -7 -50 -25 -78 -42 -75 -45 -199
-115 -210 -120 -5 -2 -23 -13 -40 -25 -16 -11 -32 -21 -35 -21 -3 0 -33 -17
-66 -38 -34 -20 -67 -37 -73 -37 -6 0 -11 -4 -11 -9 0 -5 -11 -12 -25 -15 -14
-4 -25 -11 -25 -16 0 -6 -6 -10 -14 -10 -7 0 -25 -10 -40 -21 -36 -29 -66 -21
-166 41 -45 27 -83 50 -85 50 -1 0 -80 45 -175 100 -94 55 -173 100 -175 100
-2 0 -33 18 -69 40 -36 22 -70 40 -76 40 -5 0 -10 5 -10 10 0 6 -4 10 -10 10
-5 0 -64 32 -132 71 -67 40 -136 80 -153 89 -16 10 -59 35 -95 55 -36 21 -78
45 -93 54 -16 9 -36 21 -45 26 -77 46 -182 105 -186 105 -3 0 -24 12 -48 28
-50 32 -27 18 -297 174 -118 67 -235 135 -260 150 -25 15 -55 32 -66 38 -11 5
-29 15 -40 22 -42 26 -111 67 -146 86 -55 30 -560 322 -599 346 -19 11 -38 20
-42 18 -5 -1 -8 3 -8 8 0 6 -4 10 -9 10 -7 0 -133 71 -211 120 -8 5 -37 21
-65 36 -27 14 -62 35 -77 45 -14 11 -28 19 -31 19 -2 0 -93 52 -201 115 -109
63 -199 115 -202 115 -3 0 -30 16 -60 35 -30 19 -58 35 -63 35 -5 0 -14 7 -21
15 -7 8 -16 13 -20 10 -5 -3 -10 -2 -12 3 -1 4 -28 22 -58 39 -30 17 -138 79
-238 137 -101 58 -188 106 -193 106 -5 0 -9 5 -9 10 0 6 -4 10 -10 10 -5 0
-33 14 -62 31 -29 18 -59 32 -65 32 -7 0 -11 2 -8 5 2 3 -82 54 -188 115 -230
132 -285 164 -354 205 -29 17 -53 28 -53 24 0 -4 -4 -2 -8 4 -6 9 -104 68
-257 154 -58 33 -280 160 -295 170 -8 5 -94 55 -190 110 -96 56 -182 106 -190
111 -8 5 -67 38 -130 74 -63 36 -122 70 -130 75 -8 5 -42 25 -76 44 l-60 35 0
3738 1 3738 70 43 c39 23 84 49 100 57 17 8 46 24 65 36 39 24 300 175 342
199 31 17 174 100 200 115 9 5 52 30 95 54 43 24 86 51 96 59 10 9 24 17 31
18 7 1 32 14 55 29 24 14 62 37 84 50 38 21 673 387 792 457 28 16 58 32 68
35 9 3 17 9 17 13 0 4 11 11 25 14 14 4 25 11 25 16 0 6 5 10 10 10 6 0 76 38
156 85 81 47 150 85 155 85 5 0 9 5 9 10 0 6 6 10 14 10 8 0 21 6 28 13 7 6
31 21 53 33 35 18 395 225 660 379 192 112 402 233 445 256 25 13 47 27 48 32
2 4 8 7 14 7 6 0 30 14 55 30 24 17 46 30 48 30 10 0 340 194 346 202 3 6 10
10 15 10 9 0 35 14 182 100 46 26 88 48 93 48 5 0 9 4 9 9 0 5 8 11 18 14 9 3
40 20 67 36 28 17 57 34 65 38 8 3 47 25 85 48 60 36 163 96 386 224 25 14
111 64 192 110 81 46 147 87 147 92 0 5 7 6 15 3 8 -4 17 1 21 10 3 9 15 16
25 16 10 0 19 4 19 9 0 5 8 11 18 14 9 4 40 20 67 37 28 17 59 35 70 40 11 6
29 16 40 22 38 25 91 56 160 93 39 21 77 43 85 50 8 7 29 19 45 27 64 32 440
252 443 260 2 4 12 8 23 8 10 0 19 4 19 8 0 15 44 31 67 26 13 -2 51 -22 85
-44z"/>
<path d="M8425 15006 c-22 -12 -87 -53 -145 -91 -58 -37 -125 -79 -149 -94
-24 -14 -53 -34 -63 -43 -10 -10 -21 -18 -25 -19 -8 0 -96 -55 -291 -180 -48
-31 -244 -157 -437 -279 -192 -123 -353 -228 -356 -233 -3 -5 -9 -8 -13 -8 -3
1 -30 -14 -59 -32 -29 -19 -63 -40 -77 -47 -13 -7 -29 -17 -34 -22 -15 -13
-132 -88 -188 -121 -26 -15 -53 -34 -62 -42 -8 -9 -17 -15 -18 -14 -2 1 -23
-10 -48 -26 -97 -61 -216 -138 -242 -156 -15 -10 -31 -19 -37 -19 -5 0 -11 -3
-13 -8 -1 -4 -29 -23 -61 -42 -31 -19 -56 -38 -54 -43 1 -5 16 -16 32 -25 16
-9 36 -23 43 -30 7 -7 18 -10 23 -7 5 4 9 2 9 -2 0 -9 49 -41 64 -41 5 0 12
-4 15 -10 6 -8 97 -67 266 -170 39 -24 79 -48 89 -55 11 -7 44 -27 72 -44 29
-18 57 -33 63 -33 5 0 11 -3 13 -8 2 -6 104 -72 180 -117 16 -10 152 -93 192
-118 11 -7 51 -31 88 -54 37 -24 68 -40 68 -35 0 4 5 -1 11 -10 5 -10 14 -18
19 -18 5 0 28 -13 52 -28 36 -24 479 -298 594 -367 19 -11 77 -46 131 -79 54
-32 112 -69 130 -82 17 -13 35 -24 38 -24 4 0 20 -9 36 -21 16 -11 29 -17 29
-12 0 4 4 3 8 -3 8 -12 135 -94 146 -94 7 0 498 300 506 309 3 4 16 12 30 19
42 20 93 51 99 59 3 4 20 15 36 24 31 17 135 80 285 173 47 28 96 58 110 66
14 8 27 17 30 20 3 3 19 13 35 23 17 9 83 50 148 90 65 39 139 85 165 101 26
15 50 33 54 40 4 6 8 7 8 3 0 -4 19 5 43 21 42 28 418 260 480 296 18 10 33
22 35 27 2 5 9 9 14 9 6 0 34 15 62 33 27 17 58 37 68 42 10 6 72 43 139 84
103 63 118 76 102 84 -10 6 -20 14 -23 18 -3 4 -12 9 -20 11 -8 2 -20 8 -26
13 -9 9 -375 236 -492 306 -15 9 -30 14 -34 12 -5 -2 -8 0 -8 5 0 9 -90 67
-267 171 -32 19 -59 38 -61 43 -2 4 -8 8 -14 8 -6 0 -30 14 -55 30 -24 17 -48
30 -54 30 -5 0 -9 5 -9 10 0 6 -4 10 -9 10 -4 0 -73 41 -152 90 -79 50 -151
93 -159 97 -8 3 -40 23 -70 43 -47 30 -107 67 -189 115 -9 6 -71 43 -136 84
-274 171 -307 191 -316 191 -5 0 -9 5 -9 10 0 6 -4 10 -9 10 -8 0 -250 147
-301 183 -30 21 -27 21 -75 -7z"/>
<path d="M3732 12870 c-7 -5 -9 -8447 -1 -8453 2 -3 23 -15 46 -28 23 -13 115
-67 204 -119 90 -52 165 -93 167 -92 3 2 8 -1 11 -6 7 -12 229 -142 242 -142
5 0 9 -4 9 -9 0 -5 8 -11 18 -14 9 -4 35 -17 57 -31 22 -14 51 -31 65 -39 14
-8 115 -67 225 -132 l200 -119 648 -1 c424 0 651 3 656 10 4 5 7 1425 6 3155
0 1730 1 3148 2 3152 3 6 82 -30 93 -43 3 -3 12 -9 20 -12 8 -4 31 -17 50 -28
137 -82 220 -129 229 -129 6 0 11 -4 11 -10 0 -5 4 -10 10 -10 5 0 55 -28 111
-62 56 -34 108 -61 116 -61 7 0 13 -3 13 -7 0 -6 235 -146 328 -196 15 -8 45
-26 67 -40 22 -13 47 -27 55 -31 8 -4 38 -22 67 -40 29 -18 55 -33 58 -33 3 0
22 -11 42 -25 20 -13 40 -22 45 -19 4 3 8 1 8 -5 0 -10 31 -30 83 -53 15 -7
27 -16 27 -20 0 -4 5 -8 11 -8 7 0 33 -13 59 -29 27 -16 51 -27 54 -24 3 4 6
1 6 -5 0 -6 12 -17 28 -25 36 -18 95 -52 162 -92 30 -18 145 -85 254 -149
l199 -115 46 25 c25 14 54 33 64 42 9 8 17 11 17 7 0 -4 8 -2 17 6 18 14 30
21 112 67 25 13 58 33 73 43 14 11 29 19 32 19 4 0 25 12 48 26 43 27 90 55
216 125 39 22 72 44 72 48 0 4 6 8 13 8 6 0 31 12 54 26 24 15 47 27 53 27 5
0 10 4 10 9 0 5 8 11 18 14 9 4 37 18 62 33 48 28 644 375 695 404 168 96 231
135 237 144 4 6 8 8 8 4 0 -3 80 41 177 98 133 77 179 100 183 89 3 -8 5
-1431 5 -3163 l-1 -3148 656 1 655 1 60 36 c33 20 78 47 100 61 22 13 105 62
185 108 80 46 146 87 148 91 2 5 8 8 13 8 6 0 49 23 97 51 48 29 101 60 117
69 17 10 109 64 205 120 96 57 185 108 197 114 13 6 23 15 23 19 0 5 5 5 10 2
6 -3 10 -3 10 2 0 4 18 17 40 27 l40 19 0 4231 0 4231 -910 1 c-500 0 -910 -3
-910 -6 0 -4 -16 -12 -35 -20 -19 -8 -35 -16 -35 -19 0 -4 -15 -12 -32 -20
-18 -8 -35 -18 -38 -21 -3 -4 -23 -17 -45 -29 -22 -12 -53 -29 -70 -39 -16
-10 -64 -37 -105 -61 -41 -24 -83 -51 -93 -59 -9 -8 -17 -12 -17 -8 0 4 -12
-2 -26 -13 -15 -12 -32 -21 -40 -21 -7 0 -14 -4 -16 -8 -2 -4 -41 -30 -88 -57
-47 -26 -103 -60 -125 -74 -22 -14 -42 -26 -45 -26 -11 -1 -105 -60 -108 -67
-2 -4 -8 -8 -13 -8 -5 0 -103 -55 -217 -122 -114 -67 -217 -126 -229 -132 -13
-6 -23 -14 -23 -18 0 -5 -4 -8 -10 -8 -5 0 -100 -53 -210 -117 -110 -65 -215
-126 -233 -136 -61 -35 -222 -132 -227 -137 -3 -3 -12 -6 -20 -8 -8 -2 -16 -8
-18 -13 -2 -5 -7 -9 -12 -9 -4 0 -80 -43 -168 -95 -89 -52 -164 -95 -167 -95
-4 0 -19 -8 -33 -19 -48 -34 -371 -221 -382 -221 -5 0 -10 -4 -10 -8 0 -5 -12
-14 -26 -21 -22 -10 -33 -8 -68 10 -46 24 -249 142 -343 201 -34 21 -64 38
-67 38 -4 0 -224 129 -256 150 -8 6 -28 17 -45 26 -16 8 -46 25 -67 37 -66 40
-193 115 -228 136 -19 11 -44 25 -55 31 -11 5 -38 21 -60 35 -22 14 -51 30
-65 37 -14 7 -27 15 -30 19 -3 3 -30 19 -60 36 -30 17 -156 90 -280 163 -124
73 -245 144 -270 158 -25 14 -57 34 -72 44 -16 11 -28 16 -28 11 0 -4 -4 -3
-8 3 -12 17 -79 54 -85 47 -4 -3 -7 -1 -7 4 0 6 -50 40 -111 75 -161 91 -159
90 -214 124 -27 17 -57 34 -65 38 -8 4 -24 12 -35 19 -11 7 -54 32 -95 56 -41
24 -123 72 -181 107 -59 35 -124 73 -145 86 l-39 22 -903 1 c-496 1 -906 -2
-910 -5z"/>
<path d="M6479 9598 c0 -55 0 -1944 0 -1980 1 -22 11 -33 49 -54 26 -15 111
-65 189 -111 79 -46 146 -83 149 -82 4 0 10 -3 13 -8 3 -5 71 -47 151 -92 80
-46 159 -92 177 -102 17 -10 51 -30 75 -45 23 -15 49 -27 55 -27 7 0 13 -4 13
-9 0 -5 8 -11 18 -15 9 -3 49 -26 88 -49 39 -24 74 -44 78 -44 4 0 22 -11 40
-25 l32 -24 0 -2410 -1 -2409 85 -49 c47 -27 92 -53 100 -56 8 -4 29 -16 45
-27 17 -11 41 -25 55 -32 14 -7 54 -30 90 -52 l65 -39 470 -1 c420 -2 473 0
495 15 14 9 30 18 35 20 8 3 40 21 163 94 10 6 64 36 120 68 56 32 102 64 103
70 0 7 2 1093 2 2415 l2 2402 32 18 c26 13 178 102 271 157 10 6 49 28 87 49
39 22 72 43 73 48 2 4 8 8 14 8 5 0 96 50 201 112 106 61 201 117 212 123 11
6 46 26 78 44 l57 33 0 1024 c0 971 -3 1071 -26 1010 -3 -8 -12 -12 -20 -9 -8
3 -14 0 -14 -6 0 -6 -4 -11 -10 -11 -5 0 -56 -28 -112 -61 -57 -34 -119 -71
-138 -81 -36 -20 -193 -112 -220 -128 -19 -12 -174 -102 -220 -127 -19 -11
-101 -59 -182 -107 -81 -47 -151 -86 -155 -86 -3 0 -14 -6 -22 -14 -9 -7 -36
-24 -61 -37 -25 -13 -52 -29 -60 -35 -8 -6 -37 -24 -65 -39 -93 -51 -190 -109
-196 -118 -3 -5 -8 -7 -10 -5 -6 4 -222 -123 -231 -137 -4 -5 -8 -6 -8 -2 0 8
-4 6 -75 -39 -22 -13 -59 -34 -82 -46 l-41 -21 -27 21 c-15 12 -32 22 -37 22
-5 0 -21 8 -36 19 -25 17 -306 180 -412 239 -25 14 -61 36 -80 49 -19 12 -38
23 -42 23 -4 0 -36 18 -70 40 -35 22 -68 40 -75 40 -6 0 -13 4 -15 8 -2 6
-282 172 -388 229 -14 8 -38 23 -55 33 -16 10 -41 25 -55 33 -37 21 -101 57
-135 78 -16 10 -66 38 -110 64 -132 75 -166 95 -252 146 -45 27 -87 49 -93 49
-5 0 -10 3 -10 8 0 4 -10 12 -23 17 -12 6 -43 24 -69 39 l-48 28 -1 -44z"/>
<path d="M6479 7298 c0 -18 0 -356 0 -752 -1 -588 2 -721 13 -731 7 -7 48 -31
91 -54 97 -52 176 -94 407 -218 102 -55 238 -128 303 -162 l117 -62 0 769 0
770 -192 98 c-106 54 -247 125 -313 158 -66 34 -122 63 -125 66 -3 3 -63 34
-135 70 -71 36 -131 68 -133 73 -2 4 -10 7 -18 7 -9 0 -14 -11 -15 -32z"/>
<path d="M10345 7250 c-60 -32 -115 -62 -120 -67 -6 -4 -17 -9 -25 -11 -8 -2
-17 -7 -20 -11 -3 -4 -30 -20 -60 -34 -30 -15 -62 -31 -70 -36 -8 -6 -94 -52
-190 -103 -96 -50 -178 -97 -182 -103 -4 -5 -8 -7 -8 -2 0 4 -17 -3 -37 -16
l-37 -23 0 -693 c-1 -381 3 -695 7 -698 10 -6 53 13 80 36 9 8 17 11 17 6 0
-4 6 -3 13 3 12 10 222 119 497 257 74 38 137 72 138 77 2 4 9 8 15 8 7 0 31
10 55 22 l42 23 0 712 c0 392 -1 713 -2 713 -2 -1 -52 -27 -113 -60z"/>
</g>
</svg>
